<svg xmlns="http://www.w3.org/2000/svg" viewBox="0 0 64 64" width="64" height="64">
  <defs>
    <linearGradient id="g" x1="0" y1="0" x2="1" y2="1">
      <stop offset="0%" stop-color="#667eea"/>
      <stop offset="100%" stop-color="#10b981"/>
    </linearGradient>
  </defs>
  <rect x="6" y="6" width="52" height="52" rx="12" fill="url(#g)"/>
  <g fill="#ffffff">
    <path d="M22 20h20a2 2 0 0 1 2 2v20a2 2 0 0 1-2 2H22a2 2 0 0 1-2-2V22a2 2 0 0 1 2-2zm3 6v12h14V26H25z"/>
    <path d="M15 24h4v4h-4zM45 24h4v4h-4zM15 36h4v4h-4zM45 36h4v4h-4z"/>
  </g>
  <text x="32" y="57" font-family="Inter, Segoe UI, Arial" font-size="0" text-anchor="middle">A TECH</text>
</svg>
